<svg viewBox="0 0 512 512" fill="none" xmlns="http://www.w3.org/2000/svg">
<path d="M389 40H313.574C305.316 16.7188 283.074 0 257 0C230.926 0 208.684 16.7188 200.426 40H124C90.9141 40 64 66.9141 64 100V452C64 485.086 90.9141 512 124 512H389.062C422.113 511.965 449 485.051 449 452V100C449 66.9141 422.086 40 389 40ZM237 80V60C237 48.9727 245.973 40 257 40C268.027 40 277 48.9727 277 60V80H317V119H197V80H237ZM409 452C409 463.016 400.035 471.988 389.043 472H124C112.973 472 104 463.027 104 452V100C104 88.9727 112.973 80 124 80H157V159H357V80H389C400.027 80 409 88.9727 409 100V452Z" fill="#35D3C9"/>
<path d="M362.789 256.961L333.207 230.039L232.871 340.289L177.906 287.125L150.094 315.875L234.699 397.711L362.789 256.961Z" fill="#3C67FF"/>
</svg>
