<svg version="1.1" id="Capa_1" xmlns="http://www.w3.org/2000/svg" xmlns:xlink="http://www.w3.org/1999/xlink" x="0px" y="0px"
	 viewBox="0 0 512 512" style="enable-background:new 0 0 512 512;" xml:space="preserve">
<g>
	<g>
		<g>
			<path d="M210,409c20.009,0,36.586-32.814,39.534-39h14.933c2.948,6.186,19.525,39,39.534,39c21.756,0,39.442-17.372,39.975-39
				H388v-40h-37.857c-1.466-10.35-3.901-25.187-7.499-40.171C335.753,261.141,323.111,223,293,223c-13.88,0-26.136,7.271-35,13.632
				C249.136,230.271,236.88,223,223,223c-30.111,0-42.753,38.141-49.644,66.829c-3.599,14.984-6.033,29.821-7.499,40.171H124v40
				h46.025C170.557,391.628,188.244,409,210,409z M210.519,306.814c6.102-28.55,12.232-39.491,14.943-43.197
				c2.251,0.925,6.376,3.262,14.158,9.211C245.355,277.213,250.308,281,258,281s12.645-3.787,18.38-8.172
				c2.603-1.989,9.612-7.349,14.17-9.194c2.707,3.707,8.792,14.588,14.861,42.857c1.762,8.208,3.151,16.178,4.197,22.908
				C307.775,329.142,305.905,329,304,329h-96v0.051c-0.529,0.026-1.053,0.071-1.576,0.117
				C207.45,322.59,208.805,314.835,210.519,306.814z"/>
			<path d="M452,20H60C26.916,20,0,46.916,0,80v352c0,33.084,26.916,60,60,60h392c33.084,0,60-26.916,60-60V80
				C512,46.916,485.084,20,452,20z M472,432c0,11.028-8.972,20-20,20H60c-11.028,0-20-8.972-20-20V180h432V432z M472,140H40V80
				c0-11.028,8.972-20,20-20h392c11.028,0,20,8.972,20,20V140z"/>
			<circle cx="160" cy="100" r="20"/>
			<circle cx="90" cy="100" r="20"/>
		</g>
	</g>
</g>
</svg>
