<svg viewBox="0 0 512 512" fill="none" xmlns="http://www.w3.org/2000/svg">
<path d="M452 40H428V0H388V40H124V0H84V40H60C26.9141 40 0 66.9141 0 100V452C0 485.086 26.9141 512 60 512H452C485.086 512 512 485.086 512 452V100C512 66.9141 485.086 40 452 40ZM60 80H84V120H124V80H388V120H428V80H452C463.027 80 472 88.9727 472 100V148H40V100C40 88.9727 48.9727 80 60 80ZM452 472H60C48.9727 472 40 463.027 40 452V188H472V452C472 463.027 463.027 472 452 472Z" fill="#35D3C9"/>
<path fill-rule="evenodd" clip-rule="evenodd" d="M316 430H436V310H316V430ZM403 343H349V397H403V343Z" fill="#3C67FF"/>
</svg>
