<svg viewBox="0 0 512 512" fill="none" xmlns="http://www.w3.org/2000/svg">
<path d="M384.02 429.101L407.845 461.135C419.386 452.551 430.284 442.92 440.235 432.509L411.375 404.925C402.97 413.718 393.766 421.853 384.02 429.101Z" fill="#3C67FF"/>
<path d="M319.227 462.011L331.011 500.154C344.758 495.907 358.245 490.444 371.094 483.915L353.01 448.324C342.178 453.827 330.812 458.432 319.227 462.011Z" fill="#3C67FF"/>
<path d="M434.285 376.505L467.366 398.851C475.438 386.901 482.533 374.194 488.457 361.083L452.075 344.648C447.08 355.704 441.095 366.422 434.285 376.505Z" fill="#3C67FF"/>
<path d="M236.54 236.039H124.758V275.961H276.462V76.3511H236.54V236.039Z" fill="#3C67FF"/>
<path d="M472.078 46.409V120.34C453.307 90.379 428.448 64.554 398.782 44.427C356.423 15.689 306.878 0.499023 255.501 0.499023C187.254 0.499023 123.093 27.076 74.834 75.333C26.577 123.592 0 187.753 0 256C0 324.247 26.577 388.408 74.834 436.667C123.093 484.924 187.254 511.501 255.501 511.501C266.612 511.501 277.796 510.779 288.742 509.356L283.596 469.767C274.35 470.969 264.899 471.579 255.502 471.579C136.631 471.579 39.923 374.871 39.923 256C39.923 137.129 136.631 40.421 255.502 40.421C332.659 40.421 402.677 81.117 441.106 146.214H372.273V186.136H512V46.409H472.078Z" fill="#35D3C9"/>
<path d="M470.322 273.965C470.144 276.094 469.932 278.213 469.695 280.325L469.714 280.326C468.578 290.428 466.738 300.469 464.203 310.251L502.849 320.264C506.454 306.353 508.894 292.008 510.1 277.63L510.071 277.628C510.177 276.408 510.283 275.189 510.368 273.965H470.322Z" fill="#3C67FF"/>
</svg>
