<svg viewBox="0 0 512 512" fill="none" xmlns="http://www.w3.org/2000/svg">
<path d="M256.499 201.322L148.426 309.395L176.655 337.624L236.538 277.741V476.07H276.46V277.741L336.343 337.624L364.572 309.395L256.499 201.322Z" fill="#2E76FE"/>
<path d="M416.127 193.178C413.766 106.07 342.171 35.9299 254.503 35.9299C214.229 35.9299 175.641 50.8299 145.846 77.8829C120.173 101.193 102.825 131.84 96.032 165.413C71.762 170.632 49.609 183.186 32.469 201.663C11.531 224.239 0 253.638 0 284.444C0 351.584 54.622 406.206 121.762 406.206C121.921 406.206 122.078 406.204 122.193 406.202H142.721V366.28H122.028L121.648 366.284C76.574 366.222 39.922 329.533 39.922 284.444C39.922 242.079 72.953 206.248 115.121 202.873L131.689 201.547L133.386 185.014C139.771 122.781 191.841 75.8509 254.503 75.8509C321.643 75.8509 376.265 130.473 376.265 197.613V232.545H405.208C442.08 232.545 472.077 262.542 472.077 299.414C472.077 336.286 442.08 366.283 405.208 366.283L370.276 366.276V406.2H404.558C404.775 406.204 404.991 406.207 405.208 406.207C464.094 406.207 512 358.3 512 299.415C512 244.214 469.905 198.662 416.127 193.178Z" fill="#35D3C9"/>
</svg>
