<svg viewBox="0 0 247 247" fill="none" xmlns="http://www.w3.org/2000/svg">
<path d="M247 63.5818V179.363C247 195.323 234.016 208.308 218.055 208.308H133.148V227.605H183.32V246.902H63.6797V227.605H113.852V208.308H28.9453C12.9839 208.308 0 195.323 0 179.363V63.5818C0 47.6204 12.9839 34.6365 28.9453 34.6365H117.658L98.7721 53.9333H28.9453C23.6255 53.9333 19.2969 58.2601 19.2969 63.5818V179.363C19.2969 184.683 23.6255 189.011 28.9453 189.011H218.055C223.375 189.011 227.703 184.683 227.703 179.363V63.5818C227.703 58.2601 223.375 53.9333 218.055 53.9333H209.307L216.598 43.7271C218.816 41.0154 220.631 38.053 222.02 34.9154C236.11 36.8545 247 48.9659 247 63.5818Z" fill="#35D3C9"/>
<path d="M102.407 72.8358C91.5754 73.2542 81.5557 77.8899 74.1987 85.8838C62.9316 98.1272 62.6074 111.049 62.321 122.45C62.0553 133.001 61.8046 142.966 53.6355 154.571L42.9355 169.772H61.5257C62.9919 169.772 64.4278 169.752 65.8374 169.714H197.086V150.417H124.095C127.702 147.419 130.859 144.279 133.735 141.153C141.921 132.259 145.384 120.639 144.265 109.432L199.655 31.9072C202.851 28.1967 204.498 23.4874 204.308 18.569C204.11 13.4131 201.914 8.64355 198.127 5.14033C194.341 1.63524 189.42 -0.183266 184.259 0.0146019C179.156 0.210586 174.431 2.36452 170.936 6.08068L105.588 72.849C104.533 72.8057 103.474 72.7944 102.407 72.8358ZM119.535 128.088C110.791 137.59 99.5542 146.511 77.7999 149.456C81.192 139.587 81.4162 130.642 81.6103 122.936C81.8704 112.653 82.04 105.861 88.3982 98.9507C92.2519 94.7634 97.4926 92.3362 103.152 92.1176C108.805 91.9009 114.213 93.9116 118.372 97.7823C126.999 105.814 127.521 119.408 119.535 128.088ZM184.805 19.498L184.93 19.4283L184.606 19.7769L135.717 88.2036C134.454 86.6056 133.054 85.0848 131.52 83.6583C129.832 82.0847 128.026 80.6827 126.138 79.439L184.805 19.498Z" fill="#2E76FE"/>
</svg>
