<svg version="1.1" id="Capa_1" xmlns="http://www.w3.org/2000/svg" xmlns:xlink="http://www.w3.org/1999/xlink" x="0px" y="0px"
	 viewBox="0 0 512 512" style="enable-background:new 0 0 512 512;" xml:space="preserve">
<g>
	<g>
		<g>
			<circle cx="219" cy="347" r="20"/>
			<circle cx="144" cy="347" r="20"/>
			<circle cx="294" cy="347" r="20"/>
			<path d="M400,188h-36.037v-82.23c0-58.322-48.448-105.77-108-105.77s-108,47.448-108,105.77V188H112c-33.084,0-60,26.916-60,60
				v204c0,33.084,26.916,60,60,60h288c33.084,0,60-26.916,60-60V248C460,214.916,433.084,188,400,188z M187.963,105.77
				c0-36.266,30.505-65.77,68-65.77s68,29.504,68,65.77V188h-136V105.77z M420,452c0,11.028-8.972,20-20,20H112
				c-11.028,0-20-8.972-20-20V248c0-11.028,8.972-20,20-20h288c11.028,0,20,8.972,20,20V452z"/>
			<circle cx="370" cy="347" r="20"/>
		</g>
	</g>
</g>
</svg>
