<svg viewBox="0 0 512 512" fill="none" xmlns="http://www.w3.org/2000/svg">
<path d="M451.946 35.801H60.054C26.94 35.801 0 62.742 0 95.856V416.145C0 449.259 26.94 476.199 60.054 476.199H451.946C485.06 476.199 512 449.259 512 416.145V95.855C512 62.742 485.06 35.801 451.946 35.801ZM471.964 416.145C471.964 427.183 462.984 436.163 451.946 436.163H60.054C49.016 436.163 40.036 427.183 40.036 416.145V318.244L125.368 193.529L165.437 243.616L64.219 389.117L97.085 411.981L221.01 233.837L352.008 404.135H471.964V416.145ZM471.964 364.098H371.721L219.387 166.062L189.284 209.335L122.855 126.299L40.036 247.344V95.856C40.036 84.818 49.016 75.838 60.054 75.838H451.946C462.984 75.838 471.964 84.818 471.964 95.856V364.098Z" fill="#35D3C9"/>
<path d="M377.878 107.866C344.764 107.866 317.824 134.806 317.824 167.92C317.824 201.034 344.764 227.974 377.878 227.974C410.992 227.974 437.932 201.034 437.932 167.92C437.932 134.806 410.992 107.866 377.878 107.866ZM377.878 187.939C366.84 187.939 357.86 178.959 357.86 167.921C357.86 156.883 366.84 147.903 377.878 147.903C388.916 147.903 397.896 156.883 397.896 167.921C397.896 178.959 388.916 187.939 377.878 187.939Z" fill="#2E76FE"/>
</svg>
