<svg viewBox="0 0 512.00074 512" xmlns="http://www.w3.org/2000/svg"><path d="m214.921875 324.085938 138.375-.050782c.824219-.003906 1.644531.003906 2.46875.015625v-.003906c40.515625.492187 79.347656 13.214844 112.296875 36.792969l43.9375 31.441406v-49.1875l-20.660156-14.78125c-23.785156-17.023438-50.121094-29.335938-77.910156-36.59375 3.199218-8.105469 4.3125-16.980469 3.0625-25.796875l-24.511719-173.921875h-58.980469v-27c0-35.839844-29.160156-65-65-65s-65 29.160156-65 65v27h-60.105469l-25.347656 173.660156c-.035156.222656-.050781.445313-.082031.667969l-15.4375-15.152344c-11.441406-11.226562-26.570313-17.304687-42.589844-17.175781-16.027344.152344-31.035156 6.535156-42.261719 17.972656-11.226562 11.441406-17.324219 26.566406-17.17187475 42.589844.14843775 16.027344 6.53124975 31.035156 17.97265575 42.261719l148.433594 145.667969c19.386719 19.027343 45.027344 29.507812 72.191406 29.507812h273.398438v-40h-273.398438c-16.621093 0-32.308593-6.410156-44.171874-18.054688l-148.4375-145.671874c-3.8125-3.738282-5.9375-8.742188-5.992188-14.085938-.046875-5.339844 1.984375-10.382812 5.726562-14.195312 3.742188-3.8125 8.746094-5.941407 14.085938-5.992188h.191406c5.273438 0 10.238282 2.03125 14.003906 5.726562l95.984376 94.195313.183593-.1875c3.644531 4.839844 8.074219 9.136719 13.222657 12.644531 5.40625 3.683594 16.09375 10.160156 26.957031 12.15625 6.167969 1.136719 112.546875 12.421875 158 17.222656l4.203125-39.777343c-58.347656-6.160157-147.324219-15.675781-155.097656-16.808594-1.722657-.371094-6.222657-2.226563-11.535157-5.847656-4.390625-2.992188-7.011719-7.9375-7.011719-13.234375 0-8.824219 7.175782-16.003906 16.007813-16.003906zm28.078125-259.085938c0-13.785156 11.214844-25 25-25s25 11.214844 25 25v27h-50zm-85.875 206.453125 20.355469-139.453125h25.519531v41h40v-41h50v41h40v-41h24.222656l19.664063 139.519531c.605469 4.277344-1.347657 7.269531-2.566407 8.675781-1.234374 1.421876-3.964843 3.804688-8.371093 3.804688h-197.898438c-4.421875 0-7.152343-2.398438-8.386719-3.828125-1.21875-1.410156-3.171874-4.417969-2.539062-8.71875zm0 0"/></svg>