<svg viewBox="0 0 320 320" fill="none" xmlns="http://www.w3.org/2000/svg">
<path d="M62.5 147.5C28.0371 147.5 0 119.463 0 85C0 50.5371 28.0371 22.5 62.5 22.5C96.9629 22.5 125 50.5371 125 85C125 119.463 96.9629 147.5 62.5 147.5ZM62.5 47.5C41.8213 47.5 25 64.3213 25 85C25 105.679 41.8213 122.5 62.5 122.5C83.1787 122.5 100 105.679 100 85C100 64.3213 83.1787 47.5 62.5 47.5ZM320 72.5H150V97.5H320V72.5Z" fill="#2E76FE"/>
<path d="M257.5 285C291.963 285 320 256.963 320 222.5C320 188.037 291.963 160 257.5 160C223.037 160 195 188.037 195 222.5C195 256.963 223.037 285 257.5 285ZM257.5 185C278.179 185 295 201.821 295 222.5C295 243.179 278.179 260 257.5 260C236.821 260 220 243.179 220 222.5C220 201.821 236.821 185 257.5 185ZM0 210H170V235H0V210Z" fill="#35D3C9"/>
</svg>
