<svg viewBox="0 0 512 512" xmlns="http://www.w3.org/2000/svg">
<path d="M408.974 142.689C368.114 101.829 313.786 79.326 256.001 79.326H224.284L275.191 28.294L246.827 0L147.681 99.389L245.533 198.877L274.096 170.784L223.545 119.388H256.001C353.199 119.388 432.276 198.464 432.276 295.663C432.276 392.862 353.199 471.938 256.001 471.938C158.803 471.938 79.7261 392.861 79.7261 295.659V275.628L39.6641 275.632V295.663C39.6641 353.449 62.1671 407.776 103.028 448.636C143.888 489.497 198.216 512 256.001 512C313.786 512 368.114 489.497 408.974 448.636C449.835 407.775 472.338 353.448 472.338 295.663C472.338 237.878 449.835 183.55 408.974 142.689Z"/>
</svg>
