<svg viewBox="0 0 512 512" fill="none" xmlns="http://www.w3.org/2000/svg">
<g clip-path="url(#clip0)">
<path d="M214.653 233.555L101.367 119H0.0779589L137.313 256.252L0 393H101.355L214.577 278.967C220.645 272.907 223.991 264.841 224 256.255C224.009 247.669 220.678 239.596 214.653 233.555ZM199.468 263.836L92.4763 371.594H51.7962L167.583 256.284L51.7193 140.406H92.4646L199.515 248.656C201.533 250.681 202.644 253.371 202.641 256.233C202.638 259.095 201.523 261.784 199.468 263.836Z" fill="#35D3C9"/>
<path d="M364.653 233.555L251.367 119H150.078L287.313 256.252L150 393H251.355L364.577 278.967C370.645 272.907 373.991 264.841 374 256.255C374.009 247.669 370.678 239.596 364.653 233.555ZM349.468 263.836L242.476 371.594H201.796L317.583 256.284L201.719 140.406H242.465L349.515 248.656C351.533 250.681 352.644 253.371 352.641 256.233C352.638 259.095 351.523 261.784 349.468 263.836Z" fill="#35D3C9"/>
<path d="M503.611 233.555L389.819 119H288.078L425.926 256.252L288 393H389.807L503.534 278.967C509.63 272.907 512.991 264.841 513 256.255C513.009 247.669 509.663 239.596 503.611 233.555ZM488.358 263.836L380.889 371.594H340.027L456.331 256.284L339.95 140.406H380.877L488.406 248.656C490.433 250.681 491.548 253.371 491.545 256.233C491.543 259.095 490.422 261.784 488.358 263.836Z" fill="#2E76FE"/>
</g>
<defs>
<clipPath id="clip0">
<rect width="512" height="512" fill="white"/>
</clipPath>
</defs>
</svg>
