<svg width="268" height="268" viewBox="0 0 268 268" fill="none" xmlns="http://www.w3.org/2000/svg">
<path d="M108.352 104.688C108.352 98.9056 103.665 94.2188 97.8828 94.2188H56.0078C50.2259 94.2188 45.5391 98.9056 45.5391 104.688V123.467H0V144.405H45.5391V162.266C45.5391 168.048 50.2259 172.734 56.0078 172.734H97.8828C103.665 172.734 108.352 168.048 108.352 162.266V144.405H268V123.467H108.352V104.688ZM87.4141 151.797H66.4766V115.156H87.4141V151.797Z" fill="#2E76FE"/>
<path d="M225.602 199.953C225.602 194.171 220.915 189.484 215.133 189.484H173.258C167.476 189.484 162.789 194.171 162.789 199.953V218.273H0V239.211H162.789V257.531C162.789 263.313 167.476 268 173.258 268H215.133C220.915 268 225.602 263.313 225.602 257.531V239.211H268V218.273H225.602V199.953ZM204.664 247.062H183.727V210.422H204.664V247.062Z" fill="#35D3C9"/>
<path d="M226.648 29.3125V10.4688C226.648 4.68686 221.962 0 216.18 0H174.305C168.523 0 163.836 4.68686 163.836 10.4688V29.3125H0V50.25H163.836V68.0469C163.836 73.8288 168.523 78.5156 174.305 78.5156H216.18C221.962 78.5156 226.648 73.8288 226.648 68.0469V50.25H268V29.3125H226.648ZM205.711 57.5781H184.773V20.9375H205.711V57.5781Z" fill="#35D3C9"/>
</svg>
