<svg viewBox="0 0 512 512" xmlns="http://www.w3.org/2000/svg">
<path d="M420.498 65.192C371.995 56.5 327.329 30.012 305.021 14.997C290.446 5.186 273.495 0 255.999 0C238.503 0 221.552 5.186 206.978 14.997C184.67 30.012 140.004 56.501 91.5018 65.193C62.7758 70.34 41.9258 95.195 41.9258 124.29V244.999C41.9258 284.876 53.0818 323.749 75.0848 360.538C92.2978 389.319 116.149 416.826 145.973 442.295C196.12 485.12 245.776 507.452 247.865 508.381L255.999 512L264.135 508.381C266.224 507.452 315.88 485.12 366.027 442.295C395.85 416.826 419.701 389.319 436.915 360.538C458.918 323.748 470.074 284.876 470.074 244.999V124.289C470.074 95.194 449.224 70.339 420.498 65.192ZM430.058 244.998C430.058 304.448 400.025 360.373 340.791 411.222C306.359 440.78 271.401 460.046 256 467.865C220.599 449.878 81.9388 371.329 81.9388 244.999V124.289C81.9388 114.594 88.9288 106.304 98.5598 104.578C154.278 94.593 204.403 64.963 229.321 48.191C237.268 42.842 246.494 40.014 255.999 40.014C265.504 40.014 274.729 42.842 282.676 48.192C307.595 64.964 357.719 94.594 413.437 104.58C423.067 106.306 430.058 114.595 430.058 124.291V244.998Z"/>
<path d="M225.013 294.431L156.633 230.413L129.285 259.623L227.592 351.659L383.968 176.305L354.104 149.673L225.013 294.431Z"/>
</svg>
