<svg viewBox="0 0 512 512" fill="none" xmlns="http://www.w3.org/2000/svg">
<g clip-path="url(#clip0)">
<path d="M354.335 448.699L372.454 484.359C359.58 490.901 346.067 496.375 332.293 500.63L320.486 462.412C332.095 458.827 343.483 454.213 354.335 448.699ZM385.405 429.44L409.276 461.537C420.84 452.936 431.759 443.286 441.729 432.855L412.813 405.217C404.392 414.027 395.17 422.177 385.405 429.44ZM435.769 376.74L468.915 399.13C477.003 387.157 484.112 374.425 490.047 361.288L453.594 344.821C448.589 355.899 442.592 366.638 435.769 376.74ZM471.877 274C471.699 276.133 471.486 278.256 471.249 280.372L471.268 280.373C470.13 290.495 468.286 300.555 465.746 310.356L504.467 320.389C508.079 306.451 510.524 292.078 511.732 277.672L511.703 277.67C511.809 276.448 511.915 275.226 512.001 274H471.877ZM472 66V120.061C453.769 90.959 429.784 65.732 401.131 45.78C358.121 15.831 307.589 0 255 0C186.659 0 122.535 26.644 74.439 75.023C26.437 123.308 0 187.58 0 256C0 324.419 26.437 388.692 74.439 436.978C122.535 485.356 186.659 512 255 512H275V432H235V471.073C211.471 468.882 189.033 462.857 168.302 453.643L186.145 423.686L151.779 403.217L133.413 434.053C113.801 420.494 96.539 403.746 82.354 384.57L113.963 366.321L93.963 331.68L61.628 350.349C50.543 327.514 43.35 302.442 40.922 276H80V236H40.93C43.269 210.534 50.023 186.336 60.42 164.186L92.315 183.183L112.784 148.817L80.693 129.703C94.706 110.238 111.86 93.202 131.41 79.355L149.68 111L184.321 91L166.057 59.366C187.7 49.446 211.256 43.04 236 40.853V80H276V40.996C300.868 43.363 324.649 49.909 346.536 60.073L328.68 91L363.321 111L381.079 80.242C405.119 97.487 425.602 119.751 441.023 146H393V186H512V66H472Z" fill="#35D3C9"/>
<path d="M326.858 156.858L355.142 185.142L294.635 245.65C295.52 248.953 296 252.421 296 256C296 278.056 278.056 296 256 296C233.944 296 216 278.056 216 256C216 233.944 233.944 216 256 216C259.579 216 263.047 216.48 266.35 217.366L326.858 156.858Z" fill="#3C67FF"/>
</g>
<defs>
<clipPath id="clip0">
<rect width="512" height="512" fill="white"/>
</clipPath>
</defs>
</svg>
