<svg enable-background="new 0 0 512 512" viewBox="0 0 512 512" xmlns="http://www.w3.org/2000/svg"><path d="m354.335 448.699 18.119 35.66c-12.874 6.542-26.387 12.016-40.161 16.271l-11.807-38.218c11.609-3.585 22.997-8.199 33.849-13.713zm31.07-19.259 23.871 32.097c11.564-8.601 22.483-18.251 32.453-28.682l-28.916-27.638c-8.421 8.81-17.643 16.96-27.408 24.223zm50.364-52.7 33.146 22.39c8.088-11.973 15.197-24.705 21.132-37.842l-36.453-16.467c-5.005 11.078-11.002 21.817-17.825 31.919zm36.108-102.74c-.178 2.133-.391 4.256-.628 6.372l.019.001c-1.138 10.122-2.982 20.182-5.522 29.983l38.721 10.033c3.612-13.938 6.057-28.311 7.265-42.717l-.029-.002c.106-1.222.212-2.444.298-3.67zm.123-208v54.061c-18.231-29.102-42.216-54.329-70.869-74.281-43.01-29.949-93.542-45.78-146.131-45.78-68.341 0-132.465 26.644-180.561 75.023-48.002 48.285-74.439 112.557-74.439 180.977 0 68.419 26.437 132.692 74.439 180.978 48.096 48.378 112.22 75.022 180.561 75.022h20v-80h-40v39.073c-23.529-2.191-45.967-8.216-66.698-17.43l17.843-29.957-34.366-20.469-18.366 30.836c-19.612-13.559-36.874-30.307-51.059-49.483l31.609-18.249-20-34.641-32.335 18.669c-11.085-22.835-18.278-47.907-20.706-74.349h39.078v-40h-39.07c2.339-25.466 9.093-49.664 19.49-71.814l31.895 18.997 20.469-34.366-32.091-19.114c14.013-19.465 31.167-36.501 50.717-50.348l18.27 31.645 34.641-20-18.264-31.634c21.643-9.92 45.199-16.326 69.943-18.513v39.147h40v-39.004c24.868 2.367 48.649 8.913 70.536 19.077l-17.856 30.927 34.641 20 17.758-30.758c24.04 17.245 44.523 39.509 59.944 65.758h-48.023v40h119v-120zm-116.858 119.142-28.284-28.284-60.508 60.508c-3.303-.886-6.771-1.366-10.35-1.366-22.056 0-40 17.944-40 40s17.944 40 40 40 40-17.944 40-40c0-3.579-.48-7.047-1.365-10.35z"/></svg>