<svg viewBox="0 0 512 512" fill="none" xmlns="http://www.w3.org/2000/svg">
<g clip-path="url(#clip0)">
<path d="M511.285 94.2305L417.051 0L322.82 94.2305L351.09 122.5L397.062 76.5273V157.168C397.062 186.32 384.43 213.992 362.402 233.086L284.105 300.961C272.699 310.848 263.09 322.312 255.477 334.855C248.02 322.258 238.582 310.844 227.375 301.133L148.883 233.086C126.855 213.992 114.219 186.32 114.219 157.168V76.5273L160.195 122.5L188.465 94.2305L94.2305 0L0 94.2305L28.2695 122.5L74.2422 76.5273V157.168C74.2422 197.922 91.9023 236.602 122.695 263.297L201.188 331.34C222.668 349.961 235.047 377.5 235.152 406.828V512H275.129V407.086C275.129 378.211 287.945 350.539 310.293 331.168L388.59 263.297C419.383 236.602 437.039 197.922 437.039 157.168V76.5273L483.016 122.5L511.285 94.2305Z" fill="url(#paint0_linear)"/>
</g>
<defs>
<linearGradient id="paint0_linear" x1="37" y1="147.5" x2="465" y2="147.5" gradientUnits="userSpaceOnUse">
<stop offset="0.357292" stop-color="#35D3C9"/>
<stop offset="0.695833" stop-color="#3C67FF"/>
</linearGradient>
<clipPath id="clip0">
<rect width="512" height="512" fill="white"/>
</clipPath>
</defs>
</svg>
