<svg viewBox="0 0 512 512" xmlns="http://www.w3.org/2000/svg"><path d="m496.046875 278.910156c2.726563-3.5625 7.789063-11.019531 8.359375-11.859375l7.59375-11.210937-7.597656-11.210938c-.566406-.835937-5.628906-8.292968-8.355469-11.855468-12.742187-16.617188-42.574219-55.53125-83.707031-89.574219-51.503906-42.632813-104.105469-64.246094-156.339844-64.246094s-104.835938 21.613281-156.339844 64.246094c-41.132812 34.039062-70.964844 72.957031-83.707031 89.578125-2.726563 3.558594-7.789063 11.011718-8.355469 11.851562l-7.597656 11.210938 7.59375 11.210937c.570312.839844 5.632812 8.300781 8.359375 11.859375 12.742187 16.617188 42.574219 55.535156 83.707031 89.578125 51.503906 42.628907 104.105469 64.242188 156.339844 64.242188s104.835938-21.613281 156.339844-64.246094c41.128906-34.039063 70.964844-72.957031 83.707031-89.574219zm-447.402344-23.066406c69.960938-90.851562 139.722657-136.917969 207.355469-136.917969 67.636719 0 137.394531 46.066407 207.355469 136.917969-69.960938 90.847656-139.722657 136.914062-207.355469 136.914062-67.636719 0-137.394531-46.066406-207.355469-136.914062zm246.332031 0c0 21.523438-17.449218 38.972656-38.976562 38.972656s-38.976562-17.449218-38.976562-38.972656c0-21.527344 17.449218-38.976562 38.976562-38.976562s38.976562 17.449218 38.976562 38.976562zm-38.976562-113.929688c-62.820312 0-113.929688 51.105469-113.929688 113.929688 0 62.820312 51.109376 113.929688 113.929688 113.929688s113.929688-51.109376 113.929688-113.929688c0-62.824219-51.109376-113.929688-113.929688-113.929688zm0 187.882813c-40.777344 0-73.953125-33.175781-73.953125-73.953125 0-40.78125 33.175781-73.957031 73.953125-73.957031s73.953125 33.175781 73.953125 73.957031c0 40.777344-33.175781 73.953125-73.953125 73.953125zm-215.867188-209.871094h-39.976562v-119.925781h119.925781v39.976562h-79.949219zm0 351.78125h79.949219v39.976563h-119.925781v-119.925782h39.976562zm431.734376-431.730469h-79.949219v-39.976562h119.925781v119.925781h-39.976562zm0 351.78125h39.976562v119.925782h-119.925781v-39.976563h79.949219zm0 0"/></svg>