<svg viewBox="0 0 256 256" xmlns="http://www.w3.org/2000/svg">
<path d="M79.2195 138H158.258C161.842 129.999 167.506 123.105 174.57 118H138V79H171.437C174.261 90.6775 176.053 103.346 176.71 116.544C182.512 112.789 189.145 110.199 196.273 109.101C195.473 98.694 194.013 88.596 191.936 79H224.22C230.304 90.901 234.247 104.071 235.533 118H255.613C253.278 87.579 240.313 59.294 218.51 37.49C194.334 13.3145 162.19 0 128 0C93.81 0 61.6665 13.3145 37.49 37.49C13.3145 61.6665 0 93.81 0 128C0 162.19 13.3145 194.333 37.49 218.51C61.6665 242.686 93.81 256 128 256C129.337 256 130.669 255.973 132 255.932V235.58C130.665 235.854 129.331 236 128 236C116.396 236 104.451 225.418 95.225 206.967C93.6425 203.802 92.17 200.473 90.8065 197H132V177H84.5605C81.63 164.894 79.814 151.722 79.2195 138ZM211.012 59H186.461C184.201 52.2895 181.596 45.9555 178.663 40.0895C176.82 36.403 174.87 32.961 172.831 29.7545C187.661 36.5485 200.694 46.6065 211.012 59ZM138 22.554C146.234 26.725 154.196 35.8765 160.775 49.0335C162.357 52.1975 163.828 55.528 165.191 59H138V22.554ZM95.225 49.0335C101.803 35.8765 109.766 26.725 118 22.554V59H90.808C92.1715 55.528 93.643 52.198 95.225 49.0335ZM118 79V118H79.2195C79.814 104.279 81.631 91.106 84.5605 79H118ZM83.169 29.7545C81.1295 32.961 79.1795 36.403 77.3365 40.0895C74.4035 45.9555 71.7995 52.29 69.5385 59H44.9875C55.306 46.6065 68.339 36.5485 83.169 29.7545ZM31.78 79H64.0625C61.3975 91.3105 59.748 104.447 59.2035 118H20.4675C21.7525 104.071 25.696 90.901 31.78 79ZM31.7705 177C25.6865 165.1 21.752 151.928 20.4675 138H59.204C59.7485 151.553 61.3975 164.69 64.063 177H31.7705ZM44.9815 197H69.5365C71.7975 203.71 74.403 210.044 77.336 215.911C79.1795 219.597 81.129 223.039 83.1685 226.245C68.338 219.451 55.3015 209.396 44.9815 197Z"/>
<path d="M233.992 171V157.993C233.992 141.73 220.534 128.5 203.992 128.5C187.45 128.5 173.992 141.73 173.992 157.993V171H152V256H256V171H233.992ZM193.992 157.993C193.992 152.758 198.478 148.5 203.992 148.5C209.506 148.5 213.992 152.759 213.992 157.993V171H193.992V157.993ZM236 236H172V191H236V236Z"/>
</svg>
